<svg width="168" height="48" viewBox="0 0 168 48" fill="none" xmlns="http://www.w3.org/2000/svg">
<g clip-path="url(#clip0_21_192)">
<path d="M0 0H145.281C157.55 0 167.51 10.0647 167.51 22.4623V48H22.2292C9.96026 48 0 37.9353 0 25.5377V0Z" fill="url(#paint0_radial_21_192)"/>
<path d="M45.5425 30.0842V33.5629L53.2621 29.7725V34.4841C53.2621 36.2394 51.8561 37.6602 50.1189 37.6602H37.8999L37.9906 37.2661L38.3807 35.5978L38.9114 33.3337L39.1109 32.4812L42.4537 18.2595L43.125 15.4042L43.1839 15.1429L43.9595 11.8568H50.1144C50.1915 11.8568 50.2641 11.8567 50.3366 11.8659C51.9649 11.9851 53.253 13.3555 53.253 15.0329V20.0836L45.5334 16.2933V19.772L53.253 23.5623L56.0379 24.9281L53.253 26.2939L45.5334 30.0842H45.5425Z" fill="#F4F4F2"/>
<path d="M41.9684 11.8476L41.7961 12.5763L41.4015 14.2538L40.8708 16.5042L40.6667 17.3704L37.3239 31.5921L36.6572 34.4383L36.5937 34.7133L35.8997 37.6557H29.6405C27.9034 37.6557 26.4973 36.2349 26.4973 34.4795V29.7588L34.4755 33.6729V30.1942L26.4973 26.2756L23.7261 24.9143L26.4973 23.5531L34.4755 19.6391V16.1604L26.4973 20.0745V15.0146C26.4973 13.3326 27.79 11.953 29.4274 11.8476C29.4999 11.843 29.568 11.8384 29.6405 11.8384H41.9684V11.8476Z" fill="#F4F4F2"/>
<path d="M61.1451 32.6325C61.1587 32.5821 61.1905 32.5591 61.2313 32.5591H61.7075C61.7574 32.5591 61.7892 32.5821 61.8028 32.6325L63.5036 37.5044C63.5172 37.5548 63.5036 37.5778 63.4537 37.5778H62.9412C62.8913 37.5778 62.8596 37.5548 62.846 37.5044L62.465 36.4136H60.4557L60.0747 37.5044C60.0566 37.5548 60.0248 37.5778 59.9795 37.5778H59.4669C59.417 37.5778 59.3989 37.5548 59.417 37.5044L61.1406 32.6325H61.1451ZM62.2563 35.7995L61.4762 33.5262H61.4626L60.6734 35.7995H62.2609H62.2563Z" fill="#F4F4F2"/>
<path d="M64.293 32.6325C64.293 32.5821 64.3156 32.5591 64.3655 32.5591H64.8735C64.9234 32.5591 64.9461 32.5821 64.9461 32.6325V37.5044C64.9461 37.5548 64.9234 37.5778 64.8735 37.5778H64.3655C64.3156 37.5778 64.293 37.5548 64.293 37.5044V32.6325Z" fill="#F4F4F2"/>
<path d="M67.9258 32.6325C67.9258 32.5821 67.9485 32.5591 67.9984 32.5591H70.9919C71.0418 32.5591 71.0644 32.5821 71.0644 32.6325V33.0954C71.0644 33.1458 71.0418 33.1687 70.9919 33.1687H68.6243C68.5971 33.1687 68.5789 33.1825 68.5789 33.2145V34.7408C68.5789 34.7683 68.5925 34.7866 68.6243 34.7866H70.6336C70.6835 34.7866 70.7061 34.8095 70.7061 34.8599V35.3228C70.7061 35.3732 70.6835 35.3962 70.6336 35.3962H68.6243C68.5971 35.3962 68.5789 35.4099 68.5789 35.442V37.4998C68.5789 37.5503 68.5562 37.5732 68.5063 37.5732H67.9984C67.9485 37.5732 67.9258 37.5503 67.9258 37.4998V32.6279V32.6325Z" fill="#F4F4F2"/>
<path d="M73.7403 37.5777C73.6905 37.5777 73.6678 37.5548 73.6678 37.5044V37.1927H73.6587C73.5771 37.3257 73.4501 37.4356 73.2777 37.5227C73.1054 37.6098 72.8876 37.6556 72.62 37.6556C72.4522 37.6556 72.298 37.6327 72.1574 37.5869C72.0123 37.5411 71.8898 37.4769 71.7855 37.3852C71.6812 37.2982 71.5995 37.1836 71.536 37.0507C71.4771 36.9177 71.4453 36.7619 71.4453 36.5832C71.4453 36.2073 71.5678 35.9324 71.8082 35.7536C72.0486 35.5749 72.3842 35.4878 72.8105 35.4878H73.6088C73.636 35.4878 73.6542 35.474 73.6542 35.442V35.1853C73.6542 34.9424 73.5952 34.7636 73.4773 34.6582C73.3594 34.5528 73.1371 34.4978 72.8105 34.4978C72.611 34.4978 72.4477 34.5207 72.3116 34.5666C72.1801 34.6124 72.0622 34.672 71.9624 34.7453C71.917 34.782 71.8853 34.7774 71.8581 34.7361L71.6585 34.397C71.6403 34.3557 71.6449 34.3236 71.6721 34.2916C71.8036 34.1861 71.9669 34.1036 72.171 34.0395C72.3706 33.9753 72.6019 33.9432 72.865 33.9432C73.3639 33.9432 73.7131 34.0349 73.9218 34.2182C74.1304 34.4016 74.2302 34.7132 74.2302 35.144V37.4861C74.2302 37.5365 74.2075 37.5594 74.1576 37.5594H73.7313L73.7403 37.5777ZM72.7652 37.1286C73.0419 37.1286 73.2596 37.069 73.4183 36.9498C73.5771 36.8307 73.6542 36.6565 73.6542 36.4365V36.0469C73.6542 36.0194 73.6406 36.0011 73.6088 36.0011H72.9058C72.5974 36.0011 72.3751 36.0469 72.239 36.1386C72.103 36.2303 72.0349 36.3769 72.0349 36.5786C72.0349 36.7619 72.0984 36.8994 72.2254 36.9911C72.3524 37.0827 72.5339 37.1332 72.7697 37.1332L72.7652 37.1286Z" fill="#F4F4F2"/>
<path d="M76.6207 37.6603C76.4484 37.6603 76.2941 37.6465 76.1445 37.6144C75.9948 37.5823 75.8678 37.5411 75.7453 37.4907C75.6274 37.4403 75.5185 37.3807 75.4233 37.3211C75.328 37.2615 75.2464 37.1974 75.1693 37.1332C75.133 37.0965 75.133 37.0644 75.1693 37.0278L75.4687 36.7024C75.5004 36.6703 75.5367 36.6703 75.573 36.7024C75.7045 36.817 75.8633 36.9132 76.0538 36.9911C76.2397 37.069 76.4438 37.1103 76.657 37.1103C76.9155 37.1103 77.106 37.0599 77.233 36.959C77.36 36.8582 77.4235 36.7299 77.4235 36.5695C77.4235 36.432 77.3782 36.322 77.2874 36.2395C77.1967 36.157 77.0153 36.102 76.7432 36.0745L76.3713 36.0378C76.0265 35.9966 75.7635 35.8957 75.5911 35.7261C75.4142 35.5566 75.3281 35.332 75.3281 35.0387C75.3281 34.6995 75.4414 34.4337 75.6682 34.2458C75.895 34.0579 76.217 33.9616 76.6298 33.9616C76.8883 33.9616 77.1242 33.9983 77.3328 34.0716C77.5414 34.1449 77.7229 34.2412 77.868 34.3512C77.9088 34.3741 77.9134 34.4108 77.8816 34.4566L77.6322 34.7728C77.6049 34.8049 77.5687 34.8141 77.5278 34.7866C77.4144 34.7133 77.2738 34.6445 77.106 34.5849C76.9382 34.5253 76.7659 34.4978 76.5844 34.4978C76.3667 34.4978 76.1989 34.5437 76.0855 34.6353C75.9721 34.727 75.9177 34.8416 75.9177 34.9882C75.9177 35.1349 75.9676 35.2403 76.0628 35.3182C76.1581 35.3962 76.3395 35.4466 76.6071 35.4695L76.9745 35.5062C77.3328 35.5428 77.5959 35.6436 77.7682 35.8178C77.9406 35.992 78.0268 36.2166 78.0268 36.5053C78.0268 36.8536 77.9043 37.1332 77.6594 37.3486C77.4144 37.564 77.0652 37.6648 76.6071 37.6648L76.6207 37.6603Z" fill="#F4F4F2"/>
<path d="M80.0088 37.6144C79.6687 37.6144 79.4238 37.5365 79.2831 37.3761C79.138 37.2157 79.0654 36.9636 79.0654 36.6107V34.5895C79.0654 34.562 79.0518 34.5437 79.0201 34.5437H78.7298C78.6799 34.5437 78.6572 34.5207 78.6572 34.4703V34.1174C78.6572 34.067 78.6799 34.0441 78.7298 34.0441H79.0201C79.0473 34.0441 79.0654 34.0303 79.0654 33.9982V33.0037C79.0654 32.9533 79.0881 32.9304 79.138 32.9304H79.6052C79.6551 32.9304 79.6777 32.9533 79.6777 33.0037V33.9982C79.6777 34.0257 79.6914 34.0441 79.7231 34.0441H80.2765C80.3263 34.0441 80.349 34.067 80.349 34.1174V34.4703C80.349 34.5207 80.3263 34.5437 80.2765 34.5437H79.7231C79.6959 34.5437 79.6777 34.5574 79.6777 34.5895V36.5923C79.6777 36.7711 79.714 36.8903 79.7821 36.9498C79.8546 37.0094 79.9635 37.0415 80.1222 37.0415H80.2765C80.3263 37.0415 80.349 37.0644 80.349 37.1148V37.5411C80.349 37.5915 80.3263 37.6144 80.2765 37.6144H80.0043H80.0088Z" fill="#F4F4F2"/>
<path d="M83.0252 36.4778C83.0026 36.4044 82.9799 36.3311 82.9617 36.2532C82.9436 36.1753 82.93 36.0836 82.9209 35.9782C82.9118 35.8728 82.9028 35.7445 82.8982 35.5978C82.8937 35.4511 82.8892 35.2724 82.8892 35.0661C82.8892 34.8599 82.8892 34.6812 82.8982 34.5345C82.9028 34.3878 82.9118 34.2595 82.9209 34.1541C82.93 34.0487 82.9436 33.957 82.9617 33.8791C82.9799 33.8012 82.998 33.7278 83.0252 33.6545C83.1522 33.2558 83.3563 32.9579 83.6375 32.7654C83.9187 32.5729 84.268 32.472 84.6762 32.472C85.0481 32.472 85.3702 32.5591 85.6423 32.7333C85.919 32.9075 86.1276 33.1595 86.2682 33.4804C86.2818 33.5262 86.2727 33.5583 86.241 33.5766L85.801 33.792C85.7511 33.8149 85.7194 33.8058 85.6967 33.7553C85.6015 33.5583 85.4699 33.3979 85.3112 33.2741C85.1524 33.1504 84.9393 33.0862 84.6762 33.0862C84.4131 33.0862 84.1864 33.1504 84.0185 33.2787C83.8507 33.407 83.7283 33.5904 83.6466 33.8241C83.633 33.8791 83.6194 33.9341 83.6058 33.9983C83.5922 34.0578 83.5831 34.1358 83.5786 34.2274C83.5695 34.3191 83.565 34.4337 83.5604 34.5666C83.5559 34.7041 83.5514 34.8691 83.5514 35.0661C83.5514 35.2632 83.5514 35.4282 83.5604 35.5657C83.565 35.7032 83.5695 35.8132 83.5786 35.9049C83.5877 35.9965 83.5967 36.0745 83.6058 36.1386C83.6194 36.2028 83.633 36.2578 83.6466 36.3082C83.7283 36.5465 83.8553 36.7253 84.0185 36.8536C84.1818 36.9819 84.4041 37.0461 84.6762 37.0461C84.9483 37.0461 85.1524 36.9819 85.3112 36.8582C85.4699 36.7344 85.6015 36.5694 85.6967 36.3769C85.7149 36.3265 85.7511 36.3174 85.801 36.3403L86.241 36.5557C86.2773 36.574 86.2864 36.6061 86.2682 36.6519C86.1276 36.9773 85.919 37.2248 85.6423 37.4036C85.3656 37.5777 85.0436 37.6648 84.6762 37.6648C84.268 37.6648 83.9233 37.5686 83.6375 37.3715C83.3563 37.179 83.1522 36.8811 83.0252 36.4824V36.4778Z" fill="#F4F4F2"/>
<path d="M88.4767 37.6603C88.1366 37.6603 87.8463 37.5778 87.6014 37.4082C87.3564 37.2386 87.1932 37.0095 87.0934 36.707C87.0526 36.5832 87.0253 36.4549 87.0072 36.3174C86.9891 36.1799 86.98 36.0103 86.98 35.8041C86.98 35.5978 86.9891 35.4282 87.0072 35.2953C87.0253 35.1624 87.0571 35.0341 87.0934 34.9103C87.1886 34.6033 87.361 34.3695 87.6014 34.2045C87.8417 34.0395 88.132 33.957 88.4767 33.957C88.8215 33.957 89.1072 34.0395 89.3476 34.2045C89.588 34.3695 89.7558 34.6033 89.8556 34.9103C89.8964 35.0341 89.9236 35.1624 89.9418 35.2953C89.9599 35.4282 89.969 35.5978 89.969 35.8041C89.969 36.0103 89.9599 36.1799 89.9418 36.3174C89.9236 36.4549 89.8919 36.5832 89.8556 36.707C89.7603 37.0095 89.588 37.2432 89.3476 37.4082C89.1072 37.5732 88.8169 37.6603 88.4767 37.6603ZM88.4767 37.0828C88.6718 37.0828 88.8351 37.037 88.9757 36.9407C89.1117 36.8445 89.2115 36.707 89.2659 36.5328C89.2932 36.4366 89.3158 36.3311 89.3294 36.2257C89.343 36.1203 89.3476 35.9828 89.3476 35.8087C89.3476 35.6345 89.343 35.497 89.3294 35.3962C89.3158 35.2907 89.2977 35.1899 89.2659 35.0937C89.207 34.9149 89.1117 34.782 88.9757 34.6858C88.8396 34.5895 88.6718 34.5437 88.4767 34.5437C88.2817 34.5437 88.1139 34.5895 87.9778 34.6858C87.8418 34.782 87.742 34.9195 87.6875 35.0937C87.6603 35.1945 87.6376 35.2953 87.624 35.3962C87.6104 35.5016 87.6059 35.6391 87.6059 35.8087C87.6059 35.9782 87.6104 36.1203 87.624 36.2257C87.6376 36.3311 87.6558 36.432 87.6875 36.5328C87.7465 36.7115 87.8418 36.8445 87.9778 36.9407C88.1139 37.037 88.2817 37.0828 88.4767 37.0828Z" fill="#F4F4F2"/>
<path d="M93.1487 37.5778C93.0988 37.5778 93.0761 37.5548 93.0761 37.5044V37.1653H93.067C92.9854 37.3074 92.8629 37.4265 92.7042 37.5182C92.5454 37.6098 92.3368 37.6603 92.0737 37.6603C91.7653 37.6603 91.5113 37.5869 91.3072 37.4448C91.1031 37.3028 90.9579 37.0919 90.8672 36.8124C90.8173 36.6703 90.7856 36.5236 90.7674 36.3678C90.7493 36.212 90.7402 36.0286 90.7402 35.8086C90.7402 35.5886 90.7493 35.4007 90.7674 35.2495C90.7856 35.0982 90.8173 34.9516 90.8672 34.8095C90.9534 34.5299 91.1031 34.3191 91.3072 34.1724C91.5113 34.0304 91.7653 33.957 92.0737 33.957C92.3368 33.957 92.5454 34.0029 92.7042 34.0945C92.8629 34.1862 92.9808 34.3008 93.067 34.4474H93.0761V32.6325C93.0761 32.5821 93.0988 32.5591 93.1487 32.5591H93.6158C93.6657 32.5591 93.6884 32.5821 93.6884 32.6325V37.5044C93.6884 37.5548 93.6657 37.5778 93.6158 37.5778H93.1487ZM92.2234 37.0828C92.6225 37.0828 92.8811 36.904 92.999 36.542C93.0262 36.4595 93.0489 36.3586 93.0625 36.244C93.0761 36.1295 93.0806 35.9828 93.0806 35.8041C93.0806 35.6253 93.0761 35.4832 93.0625 35.3687C93.0489 35.2541 93.0307 35.1532 92.999 35.0662C92.8811 34.7133 92.6225 34.5345 92.2234 34.5345C91.8243 34.5345 91.5793 34.7133 91.4569 35.0662C91.4297 35.167 91.407 35.2724 91.3934 35.3916C91.3798 35.5107 91.3752 35.6482 91.3752 35.8041C91.3752 35.9599 91.3798 36.1066 91.3934 36.2257C91.407 36.3449 91.4251 36.4503 91.4569 36.542C91.5793 36.8994 91.8333 37.0828 92.2234 37.0828Z" fill="#F4F4F2"/>
<path d="M96.1965 37.6603C95.8428 37.6603 95.5434 37.5778 95.303 37.4128C95.0626 37.2478 94.8948 37.0094 94.795 36.7024C94.7542 36.5878 94.727 36.464 94.7089 36.3265C94.6907 36.1891 94.6816 36.0149 94.6816 35.8086C94.6816 35.6024 94.6907 35.4282 94.7089 35.2862C94.727 35.1441 94.7542 35.0203 94.795 34.9149C94.8903 34.6033 95.0626 34.3695 95.303 34.2045C95.5434 34.0395 95.8337 33.9616 96.1693 33.9616C96.505 33.9616 96.7952 34.0441 97.0356 34.2091C97.276 34.3741 97.4438 34.6078 97.5436 34.9149C97.5618 34.9745 97.5799 35.0341 97.589 35.0937C97.6026 35.1532 97.6117 35.2266 97.6207 35.3045C97.6298 35.3824 97.6389 35.4741 97.6434 35.5749C97.6479 35.6757 97.6525 35.7949 97.6525 35.9278C97.6525 35.9782 97.6253 36.0011 97.5708 36.0011H95.3575C95.3302 36.0011 95.3121 36.0149 95.3121 36.047C95.3121 36.1432 95.3166 36.2257 95.3257 36.2899C95.3348 36.354 95.3484 36.4136 95.3711 36.4732C95.4391 36.6795 95.5479 36.8353 95.7022 36.9361C95.8518 37.0369 96.0378 37.0874 96.2555 37.0874C96.4732 37.0874 96.641 37.0507 96.7907 36.9774C96.9404 36.904 97.0583 36.8078 97.1581 36.6978C97.1989 36.6565 97.2352 36.652 97.267 36.684L97.5663 36.959C97.5981 36.9865 97.6026 37.0232 97.5754 37.0644C97.4348 37.2432 97.2488 37.3853 97.0175 37.4999C96.7862 37.6144 96.5186 37.6694 96.2101 37.6694L96.1965 37.6603ZM96.9721 35.497C96.9994 35.497 97.0175 35.4832 97.0175 35.4512C97.0175 35.2907 96.9993 35.1578 96.9676 35.057C96.9086 34.8828 96.8089 34.7453 96.6728 34.6491C96.5322 34.5528 96.3644 34.507 96.1648 34.507C95.9652 34.507 95.7974 34.5528 95.6568 34.6491C95.5162 34.7453 95.4209 34.8783 95.362 35.057C95.3257 35.1578 95.3121 35.2907 95.3121 35.4512C95.3121 35.4787 95.3257 35.497 95.3575 35.497H96.9812H96.9721Z" fill="#F4F4F2"/>
<path d="M73.5003 21.2432C73.4323 19.3366 73.3597 17.0266 73.3597 14.7167H73.2917C72.8018 16.7425 72.1487 19.002 71.5455 20.8628L69.636 27.0593H66.8602L65.182 20.9132C64.6695 19.0524 64.1342 16.7929 63.7623 14.7167H63.717C63.6217 16.8616 63.5537 19.3091 63.4358 21.289L63.1545 27.3205H59.8662L60.8686 11.4443H65.5993L67.1368 16.7425C67.6267 18.5803 68.1165 20.5603 68.4658 22.4211H68.5338C68.9783 20.5832 69.5135 18.4887 70.026 16.7196L71.7042 11.4443H76.3442L77.206 27.3205H73.7317L73.5003 21.2432Z" fill="#F4F4F2"/>
<path d="M86.3677 27.3206L86.1591 26.1656H86.091C85.3472 27.0822 84.1815 27.5772 82.8299 27.5772C80.5213 27.5772 79.147 25.8814 79.147 24.0436C79.147 21.0507 81.8049 19.6162 85.837 19.6391V19.4741C85.837 18.8599 85.5105 17.9891 83.7642 17.9891C82.5986 17.9891 81.3649 18.3879 80.6165 18.8599L79.9634 16.55C80.7571 16.1008 82.3174 15.5371 84.3902 15.5371C88.191 15.5371 89.4021 17.7966 89.4021 20.5053V24.511C89.4021 25.6202 89.4474 26.6789 89.5653 27.316H86.3722L86.3677 27.3206ZM85.9504 21.8803C84.0863 21.8574 82.6394 22.3065 82.6394 23.6952C82.6394 24.6119 83.2472 25.061 84.0364 25.061C84.9208 25.061 85.6465 24.4744 85.8779 23.7411C85.9232 23.5531 85.9459 23.3423 85.9459 23.1269V21.8803H85.9504Z" fill="#F4F4F2"/>
<path d="M100.75 27.041C100.12 27.3251 98.9315 27.5589 97.5799 27.5589C93.897 27.5589 91.543 25.2993 91.543 21.6694C91.543 18.3008 93.8289 15.5463 98.0698 15.5463C99.0041 15.5463 100.029 15.7113 100.773 15.9954L100.215 18.6583C99.7978 18.4704 99.1674 18.3054 98.233 18.3054C96.3689 18.3054 95.1579 19.6482 95.1806 21.5319C95.1806 23.654 96.5775 24.7585 98.3056 24.7585C99.1447 24.7585 99.7978 24.6164 100.333 24.4056L100.75 27.0455V27.041Z" fill="#F4F4F2"/>
<path d="M102.946 23.6219C103.903 24.1169 105.368 24.6119 106.887 24.6119C108.52 24.6119 109.382 23.929 109.382 22.8932C109.382 21.8573 108.638 21.3394 106.747 20.6565C104.134 19.7399 102.433 18.2779 102.433 15.9679C102.433 13.2592 104.669 11.1876 108.375 11.1876C110.148 11.1876 111.45 11.5634 112.384 11.9897L111.591 14.8863C110.96 14.5792 109.844 14.1346 108.302 14.1346C106.76 14.1346 106.016 14.8404 106.016 15.6654C106.016 16.6783 106.901 17.1275 108.928 17.902C111.704 18.9378 113.006 20.3999 113.006 22.6365C113.006 25.2993 110.978 27.5589 106.665 27.5589C104.869 27.5589 103.1 27.0868 102.211 26.5918L102.932 23.6219H102.946Z" fill="#F4F4F2"/>
<path d="M126.722 21.4357C126.722 25.6523 123.76 27.5818 120.707 27.5818C117.374 27.5818 114.811 25.3681 114.811 21.6465C114.811 17.925 117.233 15.5463 120.893 15.5463C124.554 15.5463 126.722 17.9708 126.722 21.4357ZM118.471 21.5503C118.471 23.5302 119.288 25.0106 120.803 25.0106C122.177 25.0106 123.066 23.6219 123.066 21.5503C123.066 19.8316 122.413 18.0899 120.803 18.0899C119.102 18.0899 118.471 19.8545 118.471 21.5503Z" fill="#F4F4F2"/>
<path d="M129.312 27.3205V18.4429H127.819V15.8029H129.312V15.3538C129.312 13.965 129.729 12.4343 130.758 11.4901C131.643 10.6422 132.881 10.3351 133.906 10.3351C134.7 10.3351 135.303 10.4314 135.793 10.5689L135.652 13.3234C135.348 13.2272 134.977 13.1584 134.509 13.1584C133.344 13.1584 132.854 14.075 132.854 15.2071V15.7938H135.14V18.4337H132.877V27.3114H129.312V27.3205Z" fill="#F4F4F2"/>
<path d="M141.245 10.6331V15.8075H143.785V18.4474H141.245V22.6182C141.245 24.0069 141.571 24.6439 142.642 24.6439C143.086 24.6439 143.435 24.5981 143.689 24.5477L143.712 27.2564C143.245 27.4443 142.406 27.5634 141.403 27.5634C140.26 27.5634 139.303 27.1647 138.745 26.5735C138.092 25.8906 137.766 24.7814 137.766 23.159V18.4474H134.577V15.8075H135.076C136.564 15.8075 137.766 14.5884 137.766 13.0897V11.4351L141.24 10.6331H141.245Z" fill="#F4F4F2"/>
</g>
<defs>
<radialGradient id="paint0_radial_21_192" cx="0" cy="0" r="1" gradientUnits="userSpaceOnUse" gradientTransform="translate(83.7551 23.9977) scale(87.6376 88.5569)">
<stop offset="0.12" stop-color="#0066B3"/>
<stop offset="0.16" stop-color="#0261AC"/>
<stop offset="0.36" stop-color="#0E4D92"/>
<stop offset="0.56" stop-color="#16407F"/>
<stop offset="0.77" stop-color="#1B3774"/>
<stop offset="0.99" stop-color="#1D3571"/>
</radialGradient>
<clipPath id="clip0_21_192">
<rect width="167.51" height="48" fill="white"/>
</clipPath>
</defs>
</svg>
