<svg width="247" height="235" viewBox="0 0 247 235" fill="none" xmlns="http://www.w3.org/2000/svg">
<path d="M246.932 31.1445L135.36 0.0027625C135.331 -0.00444457 135.298 0.0027581 135.273 0.0207758L0.0345806 112.39C-0.0232214 112.437 -0.00515759 112.527 0.0634822 112.552L92.5068 143.301L146.292 160.72C146.367 160.746 146.382 160.847 146.313 160.89L77.2616 205.375L62.2006 213.999C62.1283 214.038 62.1392 214.143 62.2186 214.168L124.099 234.37C124.117 234.377 124.139 234.377 124.157 234.37L246.936 193.534C247.022 193.505 247.022 193.379 246.932 193.354L185.72 175.823C185.691 175.816 185.669 175.794 185.658 175.765L142.43 65.9222C142.412 65.8718 142.437 65.8141 142.487 65.7997L185.109 51.8901L246.932 31.3247C247.019 31.2959 247.019 31.1697 246.928 31.1445H246.932Z" fill="#231F20"/>
</svg>
