<svg width="18" height="22" viewBox="0 0 18 22" fill="none" xmlns="http://www.w3.org/2000/svg">
<path d="M0 12.2899V3.21684C0 0.456572 1.45796 -0.607024 4.12726 0.337182C6.79657 1.28139 8.25453 3.37602 8.25453 6.13628V15.2093C8.25453 17.9696 6.79657 19.0332 4.12726 18.089C1.45796 17.1448 0 15.0502 0 12.2899ZM5.53808 14.4207V5.00033C5.53808 3.76672 4.99406 3.1083 4.12726 2.8008C3.26047 2.4933 2.71645 2.77186 2.71645 4.00548V13.4258C2.71645 14.6595 3.26047 15.3179 4.12726 15.6254C4.99406 15.9329 5.53808 15.6543 5.53808 14.4207Z" fill="white"/>
<path d="M9.89036 15.8351V14.4278L12.4617 15.3358V16.8661C12.4617 18.0997 13.0058 18.7581 13.8726 19.0656C14.7394 19.3731 15.2834 19.1452 15.2834 17.6149V16.2077C15.2834 14.605 14.7394 13.82 13.5026 13.3823L12.5887 13.0603V10.5931L13.5788 10.944C14.5907 11.3021 15.2108 11.0778 15.2108 9.6959V8.43697C15.2108 7.20335 14.6414 6.50877 13.8508 6.23021C13.0602 5.95165 12.5415 6.23743 12.5415 7.36976V8.5057L9.97015 7.59767V6.68604C9.97015 3.92577 11.3556 2.88388 13.9487 3.80276C16.5455 4.72164 17.9273 6.71496 17.9273 9.47523V10.0902C17.9273 11.9389 17.3325 12.865 15.9978 12.8867V12.9373C17.4558 13.9937 17.9998 15.4444 17.9998 17.1953V18.7256C17.9998 21.4858 16.6144 22.5024 13.9451 21.5582C11.2758 20.614 9.89036 18.5953 9.89036 15.8351Z" fill="white"/>
</svg>
