<svg width="248" height="417" viewBox="0 0 248 417" fill="none" xmlns="http://www.w3.org/2000/svg">
<path d="M92.7253 92.1421L62.1942 101.906V132.361L92.7253 122.21V92.1421Z" fill="white"/>
<path d="M62.1942 101.906L124.389 122.596V153.054L62.1942 132.36V101.906Z" fill="#DEDEDE"/>
<path d="M92.7253 92.1421L154.92 112.446L124.389 122.596L62.1942 102.292L92.7253 92.1421Z" fill="white"/>
<path d="M123.256 51.148L92.7251 61.2983V92.1422L123.256 81.6023V51.148Z" fill="white"/>
<path d="M92.7251 61.2981L154.92 81.9918V112.446L92.7251 92.1421V61.2981Z" fill="#DEDEDE"/>
<path d="M123.256 51.148L185.454 71.8382L154.92 81.992L92.7251 61.2983L123.256 51.148Z" fill="white"/>
<path d="M185.455 41.3838V71.8381L154.92 81.9919V112.446L124.389 122.596V254.571L154.92 244.421L185.455 234.267L247.649 213.577V20.69L185.455 41.3838Z" fill="#E3E4E6"/>
<path style="mix-blend-mode:multiply" opacity="0.13" d="M185.455 41.3838V71.8381L154.92 81.9919V112.446L124.389 122.596V254.571L154.92 244.421L185.455 234.267L247.649 213.577V20.69L185.455 41.3838Z" fill="url(#paint0_linear_21_2202)"/>
<path d="M153.791 10.5399L123.257 20.6901V51.1481L153.791 40.9942V10.5399Z" fill="white"/>
<path d="M123.257 20.69L185.455 41.3838V71.8381L123.257 51.1479V20.69Z" fill="#DEDEDE"/>
<path d="M185.455 0L247.649 20.6902L185.455 41.3839L123.257 20.6902L185.455 0Z" fill="white"/>
<path d="M154.92 224.117L185.455 234.267V264.721L154.92 254.571V224.117Z" fill="white"/>
<path d="M185.455 234.267L123.257 254.571V285.025L185.455 264.721V234.267Z" fill="#DEDEDE"/>
<path d="M154.92 224.117L92.7256 244.421L123.257 254.571L185.455 234.267L154.92 224.117Z" fill="white"/>
<path d="M124.388 183.509L154.92 193.659V224.117L124.388 213.963V183.509Z" fill="white"/>
<path d="M154.92 193.659L92.7251 213.963V244.421L154.92 224.117V193.659Z" fill="#DEDEDE"/>
<path d="M124.389 183.509L62.1942 203.813L92.7253 213.963L154.92 193.659L124.389 183.509Z" fill="white"/>
<path d="M92.7255 244.421V213.963L62.1944 203.813V173.359L0 152.665V294.956L62.1944 315.646L92.7255 325.8L123.257 335.95V254.571L92.7255 244.421Z" fill="#EEEFF0"/>
<path style="mix-blend-mode:multiply" opacity="0.16" d="M92.7255 244.421V213.963L62.1944 203.813V173.359L0 152.665V294.956L62.1944 315.646L92.7255 325.8L123.257 335.95V254.571L92.7255 244.421Z" fill="url(#paint1_linear_21_2202)"/>
<path d="M93.8576 142.901L124.389 153.055V183.509L93.8576 173.359V142.901Z" fill="white"/>
<path d="M124.389 153.055L62.1942 173.359V203.813L124.389 183.509V153.055Z" fill="#DEDEDE"/>
<path d="M62.1944 132.361L0 152.665L62.1944 173.359L124.389 153.055L62.1944 132.361Z" fill="white"/>
<path d="M92.7253 356.088L62.1942 366.242V396.696L92.7253 386.546V356.088Z" fill="white"/>
<path d="M62.1942 366.242L124.389 386.546V417L62.1942 396.696V366.242Z" fill="#DEDEDE"/>
<path d="M92.7253 356.088L154.92 376.392L124.389 386.546L62.1942 366.242L92.7253 356.088Z" fill="white"/>
<path d="M123.256 315.483L92.7251 325.633V356.088L123.256 345.937V315.483Z" fill="white"/>
<path d="M92.7251 325.633L154.92 345.937V376.392L92.7251 356.088V325.633Z" fill="#DEDEDE"/>
<path d="M123.256 315.483L185.454 335.787L154.92 345.937L92.7251 325.633L123.256 315.483Z" fill="white"/>
<path d="M185.455 305.329V335.787L154.92 345.937V376.392L124.389 386.546V417L154.92 406.85L185.455 396.696L247.649 376.006V284.639L185.455 305.329Z" fill="#F4F5F6"/>
<path style="mix-blend-mode:multiply" opacity="0.16" d="M185.455 305.329V335.787L154.92 345.937V376.392L124.389 386.546V417L154.92 406.85L185.455 396.696L247.649 376.006V284.639L185.455 305.329Z" fill="url(#paint2_linear_21_2202)"/>
<path d="M153.791 274.875L123.257 285.025V315.483L153.791 305.329V274.875Z" fill="white"/>
<path d="M123.257 285.025L185.455 305.329V335.787L123.257 315.483V285.025Z" fill="#DEDEDE"/>
<path d="M185.455 264.335L247.649 284.639L185.455 305.329L123.257 285.025L185.455 264.335Z" fill="white"/>
<defs>
<linearGradient id="paint0_linear_21_2202" x1="137.491" y1="89.2266" x2="254.606" y2="206.637" gradientUnits="userSpaceOnUse">
<stop stop-color="white"/>
<stop offset="0.09" stop-color="#F5F5F5"/>
<stop offset="0.25" stop-color="#DCDBDC"/>
<stop offset="0.45" stop-color="#B3B2B2"/>
<stop offset="0.68" stop-color="#7A7878"/>
<stop offset="0.95" stop-color="#322F30"/>
<stop offset="1" stop-color="#231F20"/>
</linearGradient>
<linearGradient id="paint1_linear_21_2202" x1="-25.3003" y1="177.901" x2="127.815" y2="331.403" gradientUnits="userSpaceOnUse">
<stop stop-color="white"/>
<stop offset="0.09" stop-color="#F5F5F5"/>
<stop offset="0.25" stop-color="#DCDBDC"/>
<stop offset="0.45" stop-color="#B3B2B2"/>
<stop offset="0.68" stop-color="#7A7878"/>
<stop offset="0.95" stop-color="#322F30"/>
<stop offset="1" stop-color="#231F20"/>
</linearGradient>
<linearGradient id="paint2_linear_21_2202" x1="162.936" y1="327.791" x2="229.29" y2="394.315" gradientUnits="userSpaceOnUse">
<stop stop-color="white"/>
<stop offset="0.09" stop-color="#F5F5F5"/>
<stop offset="0.25" stop-color="#DCDBDC"/>
<stop offset="0.45" stop-color="#B3B2B2"/>
<stop offset="0.68" stop-color="#7A7878"/>
<stop offset="0.95" stop-color="#322F30"/>
<stop offset="1" stop-color="#231F20"/>
</linearGradient>
</defs>
</svg>
