<svg width="596" height="574" viewBox="0 0 596 574" fill="none" xmlns="http://www.w3.org/2000/svg">
<path d="M468.426 444.162C468.023 443.971 467.576 443.863 467.105 443.863C465.39 443.863 464 445.258 464 446.969C464 448.679 465.39 450.075 467.105 450.075C468.819 450.075 470.209 448.684 470.209 446.969C470.209 446.084 469.836 445.283 469.236 444.718L519.027 370.983H581.118V370H518.506L468.431 444.162H468.426ZM467.105 449.092C465.935 449.092 464.982 448.138 464.982 446.969C464.982 445.799 465.935 444.846 467.105 444.846C468.274 444.846 469.227 445.799 469.227 446.969C469.227 448.138 468.274 449.092 467.105 449.092Z" fill="#21409A"/>
<path d="M518.502 105L468.426 179.162C468.023 178.971 467.576 178.863 467.105 178.863C465.39 178.863 464 180.258 464 181.969C464 183.679 465.39 185.075 467.105 185.075C468.819 185.075 470.209 183.679 470.209 181.969C470.209 181.084 469.836 180.283 469.236 179.718L519.022 105.983H581.113V105H518.502ZM467.105 184.097C465.935 184.097 464.982 183.143 464.982 181.974C464.982 180.804 465.935 179.851 467.105 179.851C468.274 179.851 469.227 180.804 469.227 181.974C469.227 183.143 468.274 184.097 467.105 184.097Z" fill="#21409A"/>
<path d="M200.009 523.863C199.537 523.863 199.09 523.971 198.687 524.163L148.612 450H86V450.983H148.091L197.882 524.718C197.282 525.283 196.909 526.084 196.909 526.969C196.909 528.684 198.299 530.075 200.014 530.075C201.728 530.075 203.118 528.684 203.118 526.969C203.118 525.254 201.728 523.863 200.014 523.863H200.009ZM200.009 529.092C198.84 529.092 197.887 528.138 197.887 526.969C197.887 525.799 198.84 524.846 200.009 524.846C201.178 524.846 202.131 525.799 202.131 526.969C202.131 528.138 201.178 529.092 200.009 529.092Z" fill="#21409A"/>
<path d="M190.009 300.863C189.537 300.863 189.09 300.971 188.687 301.163L138.612 227H76V227.983H138.091L187.882 301.718C187.282 302.283 186.909 303.084 186.909 303.969C186.909 305.679 188.299 307.075 190.014 307.075C191.728 307.075 193.118 305.679 193.118 303.969C193.118 302.258 191.728 300.863 190.014 300.863H190.009ZM190.009 306.092C188.84 306.092 187.887 305.138 187.887 303.969C187.887 302.799 188.84 301.846 190.009 301.846C191.178 301.846 192.131 302.799 192.131 303.969C192.131 305.138 191.178 306.092 190.009 306.092Z" fill="#21409A"/>
</svg>
