<svg width="19" height="23" viewBox="0 0 19 23" fill="none" xmlns="http://www.w3.org/2000/svg">
<path d="M0 19.561V10.3134C0 7.50005 1.486 5.37254 4.20664 4.42861C6.92728 3.48468 8.41329 4.57609 8.41329 7.39313V16.6407C8.41329 19.454 6.92728 21.5816 4.20664 22.5255C1.486 23.4694 0 22.378 0 19.561ZM5.64459 17.7764V8.17482C5.64459 6.91747 5.09011 6.63357 4.20664 6.93961C3.32317 7.24565 2.76869 7.91671 2.76869 9.17037V18.7719C2.76869 20.0292 3.32317 20.3132 4.20664 20.0071C5.09011 19.7011 5.64459 19.03 5.64459 17.7727V17.7764Z" fill="white"/>
<path d="M14.9189 15.3647L9.62921 17.2009V14.6862L14.6676 1.05085L17.6913 0V11.8876L18.9999 11.4341V13.9488L17.6913 14.4023V17.5954L14.9189 18.5578V15.3647ZM14.9189 12.85V5.98805L14.8672 6.00648L12.1465 13.8124L14.9189 12.85Z" fill="white"/>
</svg>
