<svg width="19" height="22" viewBox="0 0 19 22" fill="none" xmlns="http://www.w3.org/2000/svg">
<path d="M0 18.7406V9.60067C0 6.82006 1.46871 4.72091 4.15768 3.79162C6.84666 2.86232 8.31537 3.94469 8.31537 6.7253V15.8652C8.31537 18.6458 6.84666 20.745 4.15768 21.6743C1.46871 22.6036 0 21.5212 0 18.7406ZM5.57888 16.9877V7.4979C5.57888 6.25519 5.03087 5.97458 4.15768 6.27341C3.2845 6.57589 2.73647 7.23548 2.73647 8.47819V17.968C2.73647 19.2107 3.2845 19.4913 4.15768 19.1925C5.03087 18.89 5.57888 18.2304 5.57888 16.9877Z" fill="white"/>
<path d="M10.1092 17.4835C10.1092 14.998 10.807 13.2415 12.8493 10.4025C14.9428 7.46887 15.5383 5.94558 15.5383 4.33115C15.5383 2.71672 14.9903 2.53446 14.1171 2.83329C13.2439 3.13577 12.6959 3.79541 12.6959 5.03812V6.90036L10.1055 7.79685V6.10592C10.1055 3.32531 11.5012 1.2517 14.1902 0.322403C16.8791 -0.606897 18.2748 0.500972 18.2748 3.28158C18.2748 5.34426 17.4272 7.47251 14.888 11.0366C13.2439 13.3435 12.8201 14.3603 12.8201 15.5775V15.9492L18.0263 14.1489V16.6343L10.1055 19.3712V17.4835H10.1092Z" fill="white"/>
</svg>
