<svg width="18" height="16" viewBox="0 0 18 16" fill="none" xmlns="http://www.w3.org/2000/svg">
<path d="M0 9.84375V7.875H7V9.84375H0ZM0 5.90625V3.9375H11V5.90625H0ZM0 1.96875V0H11V1.96875H0ZM9 15.75V12.723L14.525 7.30898C14.675 7.16133 14.8417 7.05469 15.025 6.98906C15.2083 6.92344 15.3917 6.89062 15.575 6.89062C15.775 6.89062 15.9667 6.92754 16.15 7.00137C16.3333 7.0752 16.5 7.18594 16.65 7.33359L17.575 8.24414C17.7083 8.3918 17.8125 8.55586 17.8875 8.73633C17.9625 8.9168 18 9.09727 18 9.27773C18 9.4582 17.9667 9.64277 17.9 9.83145C17.8333 10.0201 17.725 10.1883 17.575 10.3359L12.075 15.75H9ZM10.5 14.2734H11.45L14.475 11.2711L14.025 10.8035L13.55 10.3605L10.5 13.3383V14.2734ZM14.025 10.8035L13.55 10.3605L14.475 11.2711L14.025 10.8035Z" fill="#666A70"/>
</svg>
