<svg width="24" height="23" viewBox="0 0 24 23" fill="none" xmlns="http://www.w3.org/2000/svg">
<path fill-rule="evenodd" clip-rule="evenodd" d="M22.788 15.7403C22.1905 15.4476 19.2921 14.0263 18.751 13.835C18.2093 13.6319 17.8149 13.5422 17.42 14.1284C17.0256 14.7146 15.8864 16.0338 15.5479 16.4175C15.1987 16.8118 14.8607 16.8576 14.2632 16.5642C13.6764 16.2708 11.7711 15.6626 9.51593 13.6551C7.76861 12.1103 6.573 10.1937 6.23445 9.60747C5.89652 9.02064 6.20059 8.70528 6.49401 8.41186C6.76422 8.14165 7.08021 7.72409 7.38428 7.38616C7.46391 7.2846 7.53099 7.19431 7.5987 7.10403C7.73412 6.88961 7.83569 6.68648 7.97049 6.40498C8.17362 6.01062 8.07205 5.67207 7.92597 5.37928C7.77927 5.08586 6.59495 2.19936 6.09902 1.02695C5.61501 -0.146708 5.11909 0.055799 4.76925 0.055799C4.41941 0.055799 4.03634 0 3.64136 0C3.24638 0 2.60375 0.146708 2.06268 0.732284C1.52225 1.31911 0 2.7398 0 5.6263C0 6.30278 0.124137 6.97927 0.304073 7.62253C0.901562 9.68584 2.18745 11.388 2.41253 11.6821C2.70531 12.0651 6.49401 18.1761 12.4927 20.5334C18.5021 22.8676 18.5021 22.0895 19.5848 21.988C20.667 21.8971 23.0807 20.5786 23.5648 19.203C24.0619 17.8388 24.0619 16.6657 23.9146 16.4181C23.7679 16.1811 23.3729 16.0344 22.788 15.7416V15.7403Z" fill="#1D3571"/>
</svg>
