<svg width="251" height="44" viewBox="0 0 251 44" fill="none" xmlns="http://www.w3.org/2000/svg">
<path d="M22.0003 0H21.9997C15.9247 0 10.4248 2.46216 6.44377 6.44386C2.46213 10.4249 0 15.9249 0 22C0 34.1501 9.84974 44 21.9997 44H22.0003C28.0753 44 33.5752 41.5378 37.5562 37.5561C41.5373 33.5751 44 28.0751 44 22C44 9.84988 34.1503 0 22.0003 0ZM28.1381 13.3624H25.2394C24.2155 13.3624 24.0031 13.7805 24.0031 14.8395V17.3965H28.1381L27.7397 21.8873H24.0031V35.2978H18.6479V21.9434H15.8619V17.3965H18.6479V13.8168C18.6479 10.4576 20.4445 8.70223 24.4298 8.70223H28.1381V13.3624Z" fill="#F4F4F2"/>
<path d="M92.1122 21.3708L91.238 20.1012L85.4782 11.7327H82.4146L89.5368 22.0807L90.4105 23.3496L96.5483 32.2679H99.6119L92.1122 21.3708ZM91.0003 0H90.9997C84.9247 0 79.4248 2.46278 75.4438 6.44386C71.4621 10.4249 69 15.9249 69 22C69 34.1501 78.8497 44 90.9997 44H91.0003C97.0753 44 102.575 41.5372 106.556 37.5561C110.537 33.5751 113 28.0751 113 22C113 9.84988 103.15 0 91.0003 0ZM95.7405 33.8047L95.2824 33.1398L89.3743 24.5557L81.4245 33.8047H79.4642L88.5006 23.2868L81.1481 12.6039L79.4907 10.1953H86.286L86.7441 10.8615L92.2742 18.8951L98.0788 12.1384L99.7572 10.1953H101.718L93.1478 20.1652L100.878 31.3967L102.536 33.8047H95.7405ZM91.238 20.1012L85.4782 11.7327H82.4146L89.5368 22.0807L90.4105 23.3496L96.5483 32.2679H99.6119L92.1122 21.3708L91.238 20.1012Z" fill="#F4F4F2"/>
<path d="M160 26.0212C162.22 26.0212 164.021 24.221 164.021 22.0004C164.021 19.7797 162.22 17.9795 160 17.9795C157.779 17.9795 155.979 19.7797 155.979 22.0004C155.979 24.221 157.779 26.0212 160 26.0212Z" fill="#F4F4F2"/>
<path d="M169.819 17.1256C169.765 15.9495 169.568 15.3111 169.404 14.8855C169.185 14.3224 168.923 13.9211 168.501 13.4986C168.079 13.0767 167.677 12.8153 167.114 12.5963C166.689 12.4314 166.05 12.2348 164.874 12.1813C163.603 12.1228 163.22 12.1104 160 12.1104C156.779 12.1104 156.398 12.1228 155.125 12.1813C153.949 12.2348 153.311 12.4314 152.886 12.5963C152.323 12.8153 151.921 13.0767 151.499 13.4986C151.077 13.9211 150.815 14.3224 150.596 14.8855C150.431 15.3111 150.235 15.9495 150.181 17.1256C150.123 18.3974 150.111 18.7788 150.111 22.0001C150.111 25.2214 150.123 25.6022 150.181 26.8741C150.235 28.0507 150.431 28.6891 150.596 29.1141C150.815 29.6772 151.077 30.0792 151.499 30.5011C151.921 30.923 152.323 31.1849 152.886 31.4033C153.311 31.5688 153.949 31.7655 155.125 31.819C156.398 31.8768 156.779 31.8893 160 31.8893C163.221 31.8893 163.603 31.8768 164.874 31.819C166.05 31.7655 166.689 31.5688 167.114 31.4033C167.677 31.1849 168.079 30.923 168.501 30.5011C168.923 30.0792 169.185 29.6772 169.404 29.1141C169.568 28.6891 169.765 28.0507 169.819 26.8741C169.876 25.6022 169.889 25.2208 169.889 22.0001C169.889 18.7795 169.876 18.3974 169.819 17.1256ZM160 28.1945C156.579 28.1945 153.806 25.4212 153.806 22.0001C153.806 18.5791 156.579 15.8058 160 15.8058C163.421 15.8058 166.194 18.5791 166.194 22.0001C166.194 25.4212 163.421 28.1945 160 28.1945ZM166.439 17.0086C165.64 17.0086 164.991 16.3602 164.991 15.5606C164.991 14.7611 165.64 14.1133 166.439 14.1133C167.239 14.1133 167.887 14.7617 167.887 15.5606C167.887 16.3596 167.238 17.0086 166.439 17.0086Z" fill="#F4F4F2"/>
<path d="M175.556 6.44385C171.575 2.46218 166.075 0 160 0C147.85 0 138 9.84996 138 21.9997C138 34.1507 147.85 44 160 44C172.15 44 182 34.1507 182 22.0003C182 15.9248 179.537 10.4249 175.556 6.44385ZM171.99 26.9738C171.932 28.2575 171.728 29.1342 171.43 29.9014C171.121 30.6948 170.708 31.3674 170.038 32.0382C169.368 32.709 168.695 33.1215 167.902 33.4295C167.134 33.7275 166.257 33.9316 164.973 33.9901C163.687 34.0492 163.276 34.0629 160 34.0629C156.724 34.0629 156.313 34.0492 155.027 33.9901C153.743 33.9316 152.866 33.7275 152.098 33.4295C151.305 33.1215 150.632 32.709 149.962 32.0382C149.292 31.3674 148.879 30.6948 148.571 29.9014C148.272 29.1342 148.069 28.2575 148.01 26.9738C147.951 25.687 147.938 25.2764 147.938 22.0003C147.938 18.7243 147.951 18.3136 148.01 17.0268C148.069 15.7425 148.272 14.8658 148.571 14.0986C148.879 13.3058 149.292 12.6326 149.962 11.9618C150.633 11.291 151.305 10.8791 152.098 10.5705C152.866 10.2725 153.743 10.0684 155.027 10.0099C156.313 9.95138 156.724 9.93707 160 9.93707C163.276 9.93707 163.687 9.95138 164.973 10.0099C166.257 10.0684 167.134 10.2725 167.902 10.5705C168.695 10.8791 169.368 11.2917 170.038 11.9618C170.708 12.6326 171.121 13.3058 171.43 14.0986C171.728 14.8658 171.932 15.7425 171.99 17.0268C172.049 18.3136 172.062 18.7243 172.062 22.0003C172.062 25.2764 172.049 25.687 171.99 26.9738Z" fill="#F4F4F2"/>
<path d="M244.556 6.44386C240.575 2.46216 235.075 0 229 0C222.925 0 217.425 2.46216 213.444 6.44386C209.463 10.4249 207 15.9249 207 22C207 34.1501 216.85 44 229 44C235.075 44 240.575 41.5378 244.556 37.5561C248.538 33.5751 251 28.0751 251 22C251 15.9249 248.538 10.4249 244.556 6.44386ZM223.577 31.8049H219.024V17.096H223.577V31.8049ZM221.279 15.1701C219.791 15.1701 218.587 13.9535 218.587 12.4549C218.587 10.9563 219.791 9.74152 221.279 9.74152C222.766 9.74152 223.971 10.9563 223.971 12.4549C223.971 13.9535 222.766 15.1701 221.279 15.1701ZM240.64 31.8049H236.108V24.0835C236.108 21.9668 235.304 20.784 233.63 20.784C231.807 20.784 230.855 22.016 230.855 24.0835V31.8049H226.488V17.096H230.855V19.0773C230.855 19.0773 232.169 16.6472 235.288 16.6472C238.408 16.6472 240.64 18.5521 240.64 22.4919V31.8049Z" fill="#F4F4F2"/>
</svg>
