<svg width="20" height="26" viewBox="0 0 20 26" fill="none" xmlns="http://www.w3.org/2000/svg">
<path d="M0 22.2042V11.5586C0 8.318 1.71121 5.87491 4.84422 4.78869C7.97723 3.70248 9.68844 4.96194 9.68844 8.20255V18.8482C9.68844 22.0888 7.97723 24.5319 4.84422 25.6181C1.71121 26.7043 0 25.4449 0 22.2042ZM6.49755 20.1545V9.10111C6.49755 7.65402 5.86082 7.32561 4.84422 7.67926C3.82762 8.0293 3.19089 8.80156 3.19089 10.2486V21.3021C3.19089 22.7492 3.82762 23.0776 4.84422 22.7239C5.86082 22.3739 6.49755 21.6016 6.49755 20.1545Z" fill="white"/>
<path d="M16.3016 5.90747L12.966 7.06224V4.8068C15.6649 3.87215 16.62 2.96276 17.3471 0.743412L19.4925 0V20.252L16.3016 21.3563V5.90747Z" fill="white"/>
</svg>
